<svg xmlns="http://www.w3.org/2000/svg" viewBox="0 0 450 150" width="100%" height="100%">
  <defs>
    <style>
      .dark { fill: #2c7be5; stroke: #2c7be5; }
      .light { fill: #97c1f8; stroke: #97c1f8; }
      .line { stroke-width: 4; stroke-linecap: round; stroke-linejoin: round; }
      .node { r: 5; stroke-width: 0; }
    </style>
  </defs>

  <line x1="50.0" y1="100.0" x2="74.0" y2="124.0" class="dark line" />
  <line x1="74.0" y1="124.0" x2="74.0" y2="88.0" class="dark line" />
  <line x1="74.0" y1="88.0" x2="50.0" y2="64.0" class="light line" />
  <line x1="50.0" y1="64.0" x2="50.0" y2="100.0" class="light line" />
  <line x1="86.0" y1="92.0" x2="110.0" y2="116.0" class="dark line" />
  <line x1="110.0" y1="116.0" x2="110.0" y2="80.0" class="light line" />
  <line x1="110.0" y1="80.0" x2="86.0" y2="56.0" class="dark line" />
  <line x1="86.0" y1="56.0" x2="86.0" y2="92.0" class="light line" />
  <line x1="50.0" y1="100.0" x2="86.0" y2="92.0" class="light line" />
  <line x1="74.0" y1="124.0" x2="110.0" y2="116.0" class="dark line" />
  <line x1="74.0" y1="88.0" x2="110.0" y2="80.0" class="dark line" />
  <line x1="50.0" y1="64.0" x2="86.0" y2="56.0" class="light line" />
  <line x1="98.0" y1="86.0" x2="134.0" y2="78.0" class="light line" />
  <line x1="134.0" y1="78.0" x2="206.0" y2="62.0" class="dark line" />
  <line x1="206.0" y1="62.0" x2="278.0" y2="46.0" class="light line" />
  <line x1="278.0" y1="46.0" x2="350.0" y2="30.0" class="dark line" />
  <line x1="350.0" y1="30.0" x2="386.0" y2="22.0" class="light line" />
  <line x1="134.0" y1="78.0" x2="134.0" y2="132.0" class="dark line" />
  <line x1="134.0" y1="78.0" x2="170.0" y2="70.0" class="light line" />
  <line x1="170.0" y1="70.0" x2="170.0" y2="88.0" class="dark line" />
  <line x1="170.0" y1="88.0" x2="134.0" y2="96.0" class="light line" />
  <line x1="134.0" y1="96.0" x2="170.0" y2="124.0" class="dark line" />
  <line x1="134.0" y1="78.0" x2="146.0" y2="90.0" class="light line" />
  <line x1="134.0" y1="132.0" x2="170.0" y2="124.0" class="light line" />
  <line x1="206.0" y1="62.0" x2="206.0" y2="116.0" class="light line" />
  <line x1="206.0" y1="62.0" x2="242.0" y2="54.0" class="dark line" />
  <line x1="242.0" y1="54.0" x2="242.0" y2="81.0" class="light line" />
  <line x1="242.0" y1="81.0" x2="206.0" y2="89.0" class="dark line" />
  <line x1="206.0" y1="62.0" x2="218.0" y2="74.0" class="dark line" />
  <line x1="278.0" y1="46.0" x2="278.0" y2="100.0" class="dark line" />
  <line x1="278.0" y1="73.0" x2="314.0" y2="38.0" class="light line" />
  <line x1="278.0" y1="73.0" x2="314.0" y2="92.0" class="light line" />
  <line x1="278.0" y1="100.0" x2="290.0" y2="112.0" class="dark line" />
  <line x1="350.0" y1="30.0" x2="350.0" y2="84.0" class="light line" />
  <line x1="341.0" y1="32.0" x2="359.0" y2="28.0" class="dark line" />
  <line x1="341.0" y1="86.0" x2="359.0" y2="82.0" class="dark line" />
  <line x1="350.0" y1="84.0" x2="362.0" y2="96.0" class="light line" />
  <circle cx="350.0" cy="30.0" class="light node" />
  <circle cx="86.0" cy="92.0" class="light node" />
  <circle cx="134.0" cy="96.0" class="dark node" />
  <circle cx="206.0" cy="116.0" class="light node" />
  <circle cx="50.0" cy="100.0" class="dark node" />
  <circle cx="110.0" cy="116.0" class="light node" />
  <circle cx="170.0" cy="124.0" class="dark node" />
  <circle cx="290.0" cy="112.0" class="dark node" />
  <circle cx="170.0" cy="88.0" class="light node" />
  <circle cx="242.0" cy="81.0" class="light node" />
  <circle cx="278.0" cy="46.0" class="light node" />
  <circle cx="170.0" cy="124.0" class="light node" />
  <circle cx="350.0" cy="30.0" class="light node" />
  <circle cx="206.0" cy="62.0" class="dark node" />
  <circle cx="134.0" cy="96.0" class="light node" />
  <circle cx="50.0" cy="100.0" class="light node" />
  <circle cx="74.0" cy="88.0" class="dark node" />
  <circle cx="98.0" cy="86.0" class="light node" />
  <circle cx="134.0" cy="132.0" class="dark node" />
  <circle cx="218.0" cy="74.0" class="dark node" />
  <circle cx="206.0" cy="62.0" class="light node" />
  <circle cx="242.0" cy="54.0" class="dark node" />
  <circle cx="278.0" cy="73.0" class="light node" />
  <circle cx="350.0" cy="84.0" class="light node" />
  <circle cx="74.0" cy="88.0" class="light node" />
  <circle cx="110.0" cy="80.0" class="dark node" />
  <circle cx="134.0" cy="78.0" class="dark node" />
  <circle cx="170.0" cy="70.0" class="dark node" />
  <circle cx="134.0" cy="132.0" class="light node" />
  <circle cx="278.0" cy="46.0" class="dark node" />
  <circle cx="314.0" cy="38.0" class="light node" />
  <circle cx="314.0" cy="92.0" class="light node" />
  <circle cx="359.0" cy="28.0" class="dark node" />
  <circle cx="278.0" cy="100.0" class="dark node" />
  <circle cx="362.0" cy="96.0" class="light node" />
  <circle cx="359.0" cy="82.0" class="dark node" />
  <circle cx="242.0" cy="54.0" class="light node" />
  <circle cx="74.0" cy="124.0" class="dark node" />
  <circle cx="206.0" cy="89.0" class="dark node" />
  <circle cx="110.0" cy="80.0" class="light node" />
  <circle cx="134.0" cy="78.0" class="dark node" />
  <circle cx="134.0" cy="78.0" class="light node" />
  <circle cx="170.0" cy="70.0" class="light node" />
  <circle cx="146.0" cy="90.0" class="light node" />
  <circle cx="206.0" cy="62.0" class="dark node" />
  <circle cx="341.0" cy="32.0" class="dark node" />
  <circle cx="86.0" cy="56.0" class="dark node" />
  <circle cx="350.0" cy="30.0" class="dark node" />
  <circle cx="86.0" cy="92.0" class="dark node" />
  <circle cx="341.0" cy="86.0" class="dark node" />
  <circle cx="134.0" cy="78.0" class="light node" />
  <circle cx="170.0" cy="88.0" class="dark node" />
  <circle cx="110.0" cy="116.0" class="dark node" />
  <circle cx="242.0" cy="81.0" class="dark node" />
  <circle cx="206.0" cy="62.0" class="light node" />
  <circle cx="386.0" cy="22.0" class="light node" />
  <circle cx="278.0" cy="46.0" class="dark node" />
  <circle cx="86.0" cy="56.0" class="light node" />
  <circle cx="50.0" cy="64.0" class="light node" />
</svg>
